<svg width="24" height="24" viewBox="0 0 24 24" fill="none" xmlns="http://www.w3.org/2000/svg">
<path d="M14 20.75V21.25H10V20.75H14ZM4.03809 20.1787C4.46922 20.4142 4.99708 20.5565 5.69238 20.6387C6.53668 20.7385 7.60087 20.7479 9 20.749V21.249C7.60465 21.248 6.51 21.2383 5.63379 21.1348C4.86226 21.0436 4.2413 20.876 3.7168 20.5693L4.03809 20.1787ZM20.2822 20.5693C19.7578 20.8757 19.1373 21.0437 18.3662 21.1348C17.4899 21.2383 16.3954 21.248 15 21.249V20.749C16.3992 20.7479 17.4633 20.7385 18.3076 20.6387C19.0031 20.5565 19.5307 20.4133 19.9619 20.1777L20.2822 20.5693ZM2.25098 14C2.25212 15.3992 2.26153 16.4633 2.36133 17.3076C2.44352 18.0028 2.58581 18.5307 2.82129 18.9619L2.42969 19.2822C2.12352 18.7579 1.95637 18.1371 1.86523 17.3662C1.76166 16.4899 1.75203 15.3954 1.75098 14H2.25098ZM22.249 14C22.248 15.3954 22.2383 16.4899 22.1348 17.3662C22.0437 18.1373 21.8757 18.7578 21.5693 19.2822L21.1777 18.9619C21.4133 18.5307 21.5565 18.0031 21.6387 17.3076C21.7385 16.4633 21.7479 15.3991 21.749 14H22.249ZM22.25 12V13H21.75V12H22.25ZM2.25 12V13H1.75V12H2.25ZM22.1729 9.25586C22.2375 9.69773 22.2475 10.239 22.249 11H21.748C21.7462 10.2745 21.7362 9.78549 21.6875 9.40332L22.1729 9.25586ZM2.31152 9.40332C2.26285 9.78547 2.25379 10.2746 2.25195 11H1.75195C1.75347 10.2391 1.76153 9.69768 1.82617 9.25586L2.31152 9.40332ZM4.44238 6.58887C3.62201 6.96339 2.96338 7.622 2.58887 8.44238L2.10645 8.2959C2.5347 7.31714 3.31715 6.53471 4.2959 6.10645L4.44238 6.58887ZM6.59863 6L6.97559 6.25098C6.26358 6.25296 5.78116 6.26339 5.40332 6.31152L5.25586 5.82617C5.53323 5.78559 5.84984 5.76673 6.23535 5.75781L6.59863 6ZM8.24316 5.33594L8 5.7002V5.17383L8.24316 5.33594ZM9.34766 3.77539C9.30504 3.82143 9.26113 3.87182 9.21582 3.92773C9.09082 4.08199 8.95861 4.27083 8.7998 4.50488L8.38281 4.22754C8.54651 3.98621 8.69002 3.78254 8.82715 3.61328C8.91756 3.50169 9.00855 3.4035 9.10156 3.31543L9.34766 3.77539ZM11.1406 3.25195C10.8578 3.25425 10.6273 3.25989 10.4297 3.27832C10.3579 3.28501 10.2915 3.29376 10.2295 3.30371L9.9834 2.84375C10.1083 2.81519 10.2407 2.79361 10.3838 2.78027C10.6005 2.76009 10.8493 2.7543 11.1406 2.75195V3.25195ZM12.8594 2.75195C13.1509 2.7543 13.4004 2.76005 13.6172 2.78027C13.7597 2.79358 13.8911 2.81535 14.0156 2.84375L13.7705 3.30371C13.7085 3.29377 13.6421 3.28501 13.5703 3.27832C13.3727 3.25989 13.1423 3.25425 12.8594 3.25195V2.75195Z" fill="#141B34" stroke="#141B34"/>
<path d="M16 13C16 15.2091 14.2091 17 12 17C9.79086 17 8 15.2091 8 13C8 10.7909 9.79086 9 12 9C14.2091 9 16 10.7909 16 13Z" stroke="#141B34" stroke-width="1.5" stroke-linecap="round" stroke-linejoin="round"/>
<path d="M17.9737 3.02148C17.9795 2.99284 18.0205 2.99284 18.0263 3.02148C18.3302 4.50808 19.4919 5.66984 20.9785 5.97368C21.0072 5.97954 21.0072 6.02046 20.9785 6.02632C19.4919 6.33016 18.3302 7.49192 18.0263 8.97852C18.0205 9.00716 17.9795 9.00716 17.9737 8.97852C17.6698 7.49192 16.5081 6.33016 15.0215 6.02632C14.9928 6.02046 14.9928 5.97954 15.0215 5.97368C16.5081 5.66984 17.6698 4.50808 17.9737 3.02148Z" stroke="#141B34" stroke-width="1.5" stroke-linecap="round" stroke-linejoin="round"/>
</svg>
