<svg width="24.000000" height="24.000000" viewBox="0 0 24 24" fill="none" xmlns="http://www.w3.org/2000/svg" xmlns:xlink="http://www.w3.org/1999/xlink">
	<desc>
			Created with Pixso.
	</desc>
	<defs/>
	<path id="Vector" d="M12.48 2.09C13.49 2.49 13.68 4.03 14.87 4.12C15.71 4.18 16.53 3.48 17.37 3.69C17.71 3.78 18 3.99 18.18 4.29C18.74 5.21 18.02 6.57 18.93 7.33C19.57 7.86 20.62 7.79 21.17 8.45C21.41 8.72 21.52 9.08 21.49 9.44C21.4 10.51 20.03 11.18 20.33 12.34C20.54 13.14 21.42 13.7 21.49 14.55C21.52 14.91 21.41 15.27 21.17 15.54C20.48 16.36 18.98 16.09 18.54 17.2C18.24 17.98 18.63 18.96 18.18 19.7C18 20 17.71 20.22 17.37 20.3C16.33 20.56 15.27 19.44 14.27 20.07C13.55 20.52 13.29 21.58 12.48 21.9C12.17 22.03 11.82 22.03 11.51 21.9C10.7 21.58 10.44 20.52 9.72 20.07C8.73 19.45 7.65 20.55 6.62 20.3C6.28 20.22 5.99 20 5.81 19.7C5.25 18.78 5.97 17.42 5.06 16.66C4.42 16.13 3.37 16.2 2.82 15.54C2.58 15.27 2.47 14.91 2.5 14.55C2.57 13.7 3.45 13.14 3.66 12.34C3.95 11.19 2.59 10.5 2.5 9.44C2.47 9.08 2.58 8.72 2.82 8.45C3.51 7.63 5.01 7.9 5.45 6.79C5.75 6.01 5.36 5.03 5.81 4.29C5.99 3.99 6.28 3.78 6.62 3.69C7.46 3.48 8.28 4.18 9.12 4.12C10.31 4.03 10.5 2.49 11.51 2.09C11.82 1.96 12.17 1.96 12.48 2.09Z" stroke="#FFFFFF" stroke-opacity="1.000000" stroke-width="1.500000" stroke-linejoin="round"/>
	<path id="Vector" d="M9 13.33C9 13.33 9.87 13.33 10.75 15C10.75 15 13.52 10.83 16 10" stroke="#FFFFFF" stroke-opacity="1.000000" stroke-width="1.500000" stroke-linejoin="round" stroke-linecap="round"/>
</svg>
