<svg width="25" height="24" viewBox="0 0 25 24" fill="none" xmlns="http://www.w3.org/2000/svg">
<path d="M21.833 11.1833V8.28029C21.833 6.64029 21.833 5.82028 21.4289 5.28529C21.0248 4.75029 20.1111 4.49056 18.2837 3.9711C17.0352 3.6162 15.9346 3.18863 15.0553 2.79829C13.8564 2.2661 13.257 2 12.833 2C12.409 2 11.8096 2.2661 10.6107 2.79829C9.7314 3.18863 8.63085 3.61619 7.38234 3.9711C5.55494 4.49056 4.64123 4.75029 4.23712 5.28529C3.83301 5.82028 3.83301 6.64029 3.83301 8.28029V11.1833C3.83301 16.8085 8.89578 20.1835 11.427 21.5194C12.0341 21.8398 12.3376 22 12.833 22C13.3284 22 13.6319 21.8398 14.239 21.5194C16.7702 20.1835 21.833 16.8085 21.833 11.1833Z" stroke="white" stroke-width="1.5" stroke-linecap="round"/>
</svg>
