<svg width="24" height="25" viewBox="0 0 24 25" fill="none" xmlns="http://www.w3.org/2000/svg">
<path d="M21.4477 8.7C21.5 9.75014 21.5 10.9994 21.5 12.5C21.5 16.9783 21.5 19.2175 20.1088 20.6088C18.7175 22 16.4783 22 12 22C7.52166 22 5.28249 22 3.89124 20.6088C2.5 19.2175 2.5 16.9783 2.5 12.5C2.5 8.02166 2.5 5.78249 3.89124 4.39124C5.28249 3 7.52166 3 12 3C13.0719 3 14.0156 3 14.85 3.01908" stroke="#00A62C" stroke-width="1.5" stroke-linecap="round"/>
<path d="M8 12C8 12 9.5 12 11.5 15.5C11.5 15.5 16.5588 6.33333 21.5 4.5" stroke="#00A62C" stroke-width="1.5" stroke-linecap="round" stroke-linejoin="round"/>
</svg>
