<svg width="24" height="25" viewBox="0 0 24 25" fill="none" xmlns="http://www.w3.org/2000/svg">
<path d="M4.28564 7.625L9.76668 10.7306C11.7873 11.8755 12.6411 11.8755 14.6618 10.7306L20.1428 7.625" stroke="#F1F1F1" stroke-width="1.5" stroke-linejoin="round"/>
<path d="M4.29815 13.552C4.34998 15.9826 4.3759 17.1978 5.27272 18.0981C6.16953 18.9983 7.41769 19.0296 9.914 19.0924C11.4525 19.1311 12.9759 19.1311 14.5144 19.0924C17.0107 19.0296 18.2589 18.9983 19.1557 18.0981C20.0525 17.1978 20.0785 15.9826 20.1302 13.552C20.147 12.7705 20.147 11.9937 20.1302 11.2122C20.0785 8.78163 20.0525 7.56636 19.1557 6.66613C18.2589 5.7659 17.0107 5.73454 14.5144 5.67182C12.9759 5.63316 11.4525 5.63316 9.91399 5.67181C7.41769 5.73452 6.16953 5.76588 5.27271 6.66612C4.37589 7.56636 4.34998 8.78162 4.29814 11.2122C4.28147 11.9937 4.28148 12.7705 4.29815 13.552Z" stroke="#F1F1F1" stroke-width="1.5" stroke-linejoin="round"/>
</svg>
