<svg width="24" height="25" viewBox="0 0 24 25" fill="none" xmlns="http://www.w3.org/2000/svg">
<path d="M4 7.5V21.5" stroke="#D8C600" stroke-width="1.5" stroke-linecap="round" stroke-linejoin="round"/>
<path d="M11.7576 4.40865C8.45236 2.72497 5.85125 3.71144 4.55426 4.7192C4.32048 4.90085 4.20358 4.99167 4.10179 5.19967C4 5.40767 4 5.60138 4 5.9888V15.2319C4.9697 14.1342 7.87879 12.4328 11.7576 14.4086C15.224 16.1744 18.1741 15.4424 19.5697 14.6795C19.7633 14.5737 19.8601 14.5207 19.9301 14.4028C20 14.2849 20 14.1569 20 13.9009V6.37389C20 5.54538 20 5.13113 19.8027 4.98106C19.6053 4.83099 19.1436 4.959 18.2202 5.21504C16.64 5.65319 14.3423 5.72532 11.7576 4.40865Z" stroke="#D8C600" stroke-width="1.5" stroke-linecap="round" stroke-linejoin="round"/>
</svg>
