<svg width="32" height="32" viewBox="0 0 32 32" fill="none" xmlns="http://www.w3.org/2000/svg">
<path d="M20.6666 24C20.6666 26.5773 18.5773 28.6667 16 28.6667C13.4226 28.6667 11.3333 26.5773 11.3333 24" stroke="#141B34" stroke-width="2" stroke-linecap="round" stroke-linejoin="round"/>
<path d="M25.6415 23.9999H6.35849C5.05593 23.9999 4 22.9439 4 21.6414C4 21.0159 4.24848 20.4161 4.69079 19.9737L5.49509 19.1694C6.24524 18.4193 6.66667 17.4018 6.66667 16.341V12.6666C6.66667 7.51193 10.8453 3.33325 16 3.33325C21.1547 3.33325 25.3333 7.51192 25.3333 12.6666V16.341C25.3333 17.4018 25.7548 18.4193 26.5049 19.1694L27.3092 19.9737C27.7515 20.4161 28 21.0159 28 21.6414C28 22.9439 26.944 23.9999 25.6415 23.9999Z" stroke="#141B34" stroke-width="2" stroke-linecap="round" stroke-linejoin="round"/>
</svg>
