<svg width="24" height="25" viewBox="0 0 24 25" fill="none" xmlns="http://www.w3.org/2000/svg">
<path d="M15.5 11.5C15.5 9.567 13.933 8 12 8C10.067 8 8.5 9.567 8.5 11.5C8.5 13.433 10.067 15 12 15C13.933 15 15.5 13.433 15.5 11.5Z" stroke="#F1F1F1" stroke-width="1.5" stroke-linecap="round" stroke-linejoin="round"/>
<path d="M15.4825 11.8499C15.8045 11.9475 16.146 12 16.4998 12C18.4328 12 19.9998 10.433 19.9998 8.5C19.9998 6.567 18.4328 5 16.4998 5C14.6849 5 13.1926 6.3814 13.0171 8.15013" stroke="#F1F1F1" stroke-width="1.5" stroke-linecap="round" stroke-linejoin="round"/>
<path d="M10.9827 8.15013C10.8072 6.3814 9.31492 5 7.5 5C5.567 5 4 6.567 4 8.5C4 10.433 5.567 12 7.5 12C7.85381 12 8.19535 11.9475 8.51727 11.8499" stroke="#F1F1F1" stroke-width="1.5" stroke-linecap="round" stroke-linejoin="round"/>
<path d="M22 17C22 14.2386 19.5376 12 16.5 12" stroke="#F1F1F1" stroke-width="1.5" stroke-linecap="round" stroke-linejoin="round"/>
<path d="M17.5 20C17.5 17.2386 15.0376 15 12 15C8.96243 15 6.5 17.2386 6.5 20" stroke="#F1F1F1" stroke-width="1.5" stroke-linecap="round" stroke-linejoin="round"/>
<path d="M7.5 12C4.46243 12 2 14.2386 2 17" stroke="#F1F1F1" stroke-width="1.5" stroke-linecap="round" stroke-linejoin="round"/>
</svg>
